<svg width="0" height="0" class="hidden">
  <symbol xmlns="http://www.w3.org/2000/svg" viewBox="0 0 17 18" id="basket">
    <path d="M5.487 6.917l6.945 1.929-2.628 4.38s0 0 0 0a.569.569 0 00-.081.293 3.585 3.585 0 003.58 3.581 3.585 3.585 0 003.582-3.581.569.569 0 00-.081-.293l-.086.052.086-.052-2.28-3.799 1.64.455a.569.569 0 00.7-.395h0a.569.569 0 00-.396-.7l-3.017-.839L9.354 6.81V1.578a.838.838 0 00-.11-.44A.511.511 0 008.785.9a.532.532 0 00-.307.087.52.52 0 00-.175.213 1.16 1.16 0 00-.087.48v4.814L4.413 5.438l-3.007-.835a.569.569 0 00-.7.395h0a.569.569 0 00.396.7s0 0 0 0l2.292.637-2.628 4.38s0 0 0 0a.568.568 0 00-.08.293s0 0 0 0h.1c0 .93.361 1.805 1.019 2.462a3.458 3.458 0 002.462 1.02 3.485 3.485 0 003.48-3.482.469.469 0 00-.066-.24L5.487 6.916zm10.193 7.17a2.448 2.448 0 01-2.376 1.876 2.448 2.448 0 01-2.377-1.875h4.753zm-4.384-1.137l2.008-3.347 2.008 3.347h-4.016zm-5.021-2.51H2.259l2.008-3.347 2.008 3.347zm-2.009 3.012c-1.15 0-2.119-.8-2.376-1.875h4.753a2.448 2.448 0 01-2.377 1.875z" fill="#003466" stroke="#003466" stroke-width=".2"></path>
  </symbol>
</svg>